<svg width="429" height="442" viewBox="0 0 429 442" fill="none" xmlns="http://www.w3.org/2000/svg">
<path d="M196.75 124.82L347.56 213.15L196.75 282.56L69.3398 184.84L196.75 124.82Z" fill="#4142F5"/>
<path d="M45.9399 336.3L47.2399 193.02L196.75 282.56V438.57L45.9399 336.3Z" fill="white" stroke="black" stroke-width="3.36" stroke-miterlimit="10"/>
<path d="M347.56 347.57L196.75 438.58V282.57C196.75 282.57 355.36 210.63 355.36 213.23C355.36 215.83 347.56 347.57 347.56 347.57Z" fill="white" stroke="black" stroke-width="3.36" stroke-miterlimit="10"/>
<path d="M196.75 124.82C200.11 116.07 204.96 105.59 212.03 94.4803C220.02 81.9103 228.53 72.1903 235.76 65.0103C290.07 95.0603 344.39 125.1 398.7 155.15C390.47 160.41 379.62 168.57 369.01 180.61C358.44 192.61 351.74 204.35 347.56 213.15C297.29 183.7 247.02 154.26 196.75 124.81V124.82Z" fill="white" stroke="black" stroke-width="3.36" stroke-miterlimit="10"/>
<path d="M196.75 283.97C200.24 282.85 217.34 277.76 235.1 286.9C248.23 293.66 254.45 304.45 256.55 308.57L422.96 218.32L347.55 213.16C297.28 236.77 247.01 260.37 196.74 283.98L196.75 283.97Z" fill="white" stroke="black" stroke-width="3.36" stroke-miterlimit="10"/>
<path d="M37.8699 132.07C76.4599 113.04 115.04 94.01 153.63 74.98C168 91.59 182.38 108.2 196.75 124.82L100.54 173.36C79.6499 159.6 58.7599 145.84 37.8699 132.08V132.07Z" fill="white" stroke="black" stroke-width="3.36" stroke-miterlimit="10"/>
<path d="M1.69989 116.52C1.95989 116.19 4.63989 117.9 4.95989 118.1C8.68989 120.43 51.2699 141.11 153.63 190.04C161.51 202.02 169.8 216.21 177.57 232.62C186.17 250.76 192.31 267.72 196.75 282.57C145.61 251.95 98.3799 223.66 47.2399 193.03C43.4499 183.36 38.6799 172.83 32.6699 161.82C21.9199 142.12 8.96989 124.18 4.08989 119.41C3.67989 119.01 1.43989 116.86 1.69989 116.53V116.52Z" fill="white" stroke="black" stroke-width="3.36" stroke-miterlimit="10"/>
<path d="M250.92 220.59C258.818 220.59 265.22 214.188 265.22 206.29C265.22 198.393 258.818 191.99 250.92 191.99C243.022 191.99 236.62 198.393 236.62 206.29C236.62 214.188 243.022 220.59 250.92 220.59Z" fill="#4142F5" stroke="white" stroke-width="3.36" stroke-miterlimit="10"/>
<path d="M188.95 220.59C196.848 220.59 203.25 214.188 203.25 206.29C203.25 198.393 196.848 191.99 188.95 191.99C181.052 191.99 174.65 198.393 174.65 206.29C174.65 214.188 181.052 220.59 188.95 220.59Z" fill="#4142F5" stroke="white" stroke-width="3.36" stroke-miterlimit="10"/>
<path d="M168.48 150.23L185.34 145.57C186.36 123.8 180.61 110.76 173.68 102.56C167.21 94.8901 163.61 95.0401 156.35 86.0901C154.03 83.2301 136.1 61.1301 141.94 40.8501C146.67 24.4101 164.16 19.1601 161.44 8.67013C160.16 3.72013 155.36 1.39012 154.84 1.14012C144.63 -3.63988 128.17 7.37012 121.69 18.0401C120.32 20.3001 108.26 36.2701 112.16 56.1801C117.82 85.1101 150.19 88.6901 163.56 124.21C167.63 135.03 168.37 144.65 168.5 150.22L168.48 150.23Z" fill="#4142F5"/>
<path d="M219.93 223.84C221.725 223.84 223.18 222.385 223.18 220.59C223.18 218.795 221.725 217.34 219.93 217.34C218.135 217.34 216.68 218.795 216.68 220.59C216.68 222.385 218.135 223.84 219.93 223.84Z" fill="white"/>
</svg>
